<svg width="80" height="80" viewBox="0 0 80 80" fill="none" xmlns="http://www.w3.org/2000/svg">
<path d="M77 3V13.86H3V3H77ZM77 0H3C1.34 0 0 1.34 0 3V13.86C0 15.52 1.34 16.86 3 16.86H77C78.66 16.86 80 15.52 80 13.86V3C80 1.34 78.66 0 77 0Z" fill="#9292A1"/>
<path d="M68.1 9.93018H6.77999C6.54999 9.93018 6.35999 9.74018 6.35999 9.51018V7.35018C6.35999 7.12018 6.54999 6.93018 6.77999 6.93018H68.1C68.33 6.93018 68.52 7.12018 68.52 7.35018V9.52018C68.52 9.74018 68.33 9.93018 68.1 9.93018Z" fill="#9292A1"/>
<path d="M77 34.5698V45.4298H3V34.5698H77ZM77 31.5698H3C1.34 31.5698 0 32.9098 0 34.5698V45.4298C0 47.0898 1.34 48.4298 3 48.4298H77C78.66 48.4298 80 47.0898 80 45.4298V34.5698C80 32.9098 78.66 31.5698 77 31.5698Z" fill="#9292A1"/>
<path d="M43.5 41.5002H6.77999C6.54999 41.5002 6.35999 41.3102 6.35999 41.0802V38.9102C6.35999 38.6802 6.54999 38.4902 6.77999 38.4902H43.5C43.73 38.4902 43.92 38.6802 43.92 38.9102V41.0802C43.91 41.3102 43.73 41.5002 43.5 41.5002Z" fill="#9292A1"/>
<path d="M77 66.1401V77.0001H3V66.1401H77ZM77 63.1401H3C1.34 63.1401 0 64.4801 0 66.1401V77.0001C0 78.6601 1.34 80.0001 3 80.0001H77C78.66 80.0001 80 78.6601 80 77.0001V66.1401C80 64.4801 78.66 63.1401 77 63.1401Z" fill="#9292A1"/>
<path d="M56.9 73.0701H6.77999C6.54999 73.0701 6.35999 72.8801 6.35999 72.6501V70.4801C6.35999 70.2501 6.54999 70.0601 6.77999 70.0601H56.9C57.13 70.0601 57.32 70.2501 57.32 70.4801V72.6501C57.32 72.8801 57.13 73.0701 56.9 73.0701Z" fill="#9292A1"/>
</svg>
