<svg width="81" height="81" viewBox="0 0 81 81" fill="none" xmlns="http://www.w3.org/2000/svg">
<g clip-path="url(#clip0_88_69)">
<path d="M73.51 80.01H6.5C2.92 80.01 0 77.09 0 73.51V6.5C0 2.92 2.92 0 6.5 0H73.51C77.09 0 80.01 2.92 80.01 6.5V73.51C80.01 77.1 77.1 80.01 73.51 80.01ZM6.5 3C4.57 3 3 4.57 3 6.5V73.51C3 75.44 4.57 77.01 6.5 77.01H73.51C75.44 77.01 77.01 75.44 77.01 73.51V6.5C77.01 4.57 75.44 3 73.51 3H6.5Z" fill="#9292A1"/>
<path d="M47.63 45.19C46.8 45.19 46.13 44.52 46.13 43.69V40.64C46.13 38.11 44.07 36.04 41.53 36.04H29.34C26.81 36.04 24.74 38.1 24.74 40.64V43.69C24.74 44.52 24.07 45.19 23.24 45.19C22.41 45.19 21.74 44.52 21.74 43.69V40.64C21.74 36.45 25.15 33.04 29.34 33.04H41.53C45.72 33.04 49.13 36.45 49.13 40.64V43.69C49.13 44.51 48.46 45.19 47.63 45.19Z" fill="#9292A1"/>
<path d="M35.43 29.9402C31.24 29.9402 27.83 26.5302 27.83 22.3402C27.83 18.1502 31.24 14.7402 35.43 14.7402C39.62 14.7402 43.03 18.1502 43.03 22.3402C43.03 26.5302 39.62 29.9402 35.43 29.9402ZM35.43 17.7502C32.9 17.7502 30.83 19.8102 30.83 22.3502C30.83 24.8902 32.89 26.9502 35.43 26.9502C37.97 26.9502 40.03 24.8902 40.03 22.3502C40.03 19.8102 37.97 17.7502 35.43 17.7502Z" fill="#9292A1"/>
<path d="M56.77 45.1902C55.94 45.1902 55.27 44.5202 55.27 43.6902V40.6402C55.27 38.5502 53.85 36.7202 51.82 36.1902C51.02 35.9802 50.54 35.1602 50.74 34.3602C50.95 33.5602 51.76 33.0802 52.57 33.2802C55.92 34.1502 58.27 37.1702 58.27 40.6302V43.6802C58.27 44.5102 57.6 45.1902 56.77 45.1902Z" fill="#9292A1"/>
<path d="M46.1 29.7601C45.43 29.7601 44.82 29.3101 44.65 28.6301C44.44 27.8301 44.93 27.0101 45.73 26.8001C47.36 26.3801 48.63 25.1101 49.04 23.4901C49.67 21.0301 48.18 18.5301 45.73 17.9001C44.93 17.6901 44.44 16.8801 44.65 16.0701C44.86 15.2701 45.67 14.7801 46.48 14.9901C50.54 16.0301 52.99 20.1801 51.96 24.2301C51.27 26.9201 49.17 29.0201 46.48 29.7101C46.35 29.7501 46.22 29.7601 46.1 29.7601Z" fill="#9292A1"/>
<path d="M61.01 57.3501H19.01C18.18 57.3501 17.51 56.6801 17.51 55.8501C17.51 55.0201 18.18 54.3501 19.01 54.3501H61.01C61.84 54.3501 62.51 55.0201 62.51 55.8501C62.51 56.6801 61.83 57.3501 61.01 57.3501Z" fill="#9292A1"/>
<path d="M54.69 65.2603H25.33C24.5 65.2603 23.83 64.5903 23.83 63.7603C23.83 62.9303 24.5 62.2603 25.33 62.2603H54.69C55.52 62.2603 56.19 62.9303 56.19 63.7603C56.19 64.5903 55.52 65.2603 54.69 65.2603Z" fill="#9292A1"/>
</g>
<defs>
<clipPath id="clip0_88_69">
<rect width="80.01" height="80.01" fill="white"/>
</clipPath>
</defs>
</svg>
