<svg width="81" height="81" viewBox="0 0 81 81" fill="none" xmlns="http://www.w3.org/2000/svg">
<g clip-path="url(#clip0_88_86)">
<path d="M73.51 80.01H6.5C2.92 80.01 0 77.09 0 73.51V6.5C0 2.92 2.92 0 6.5 0H73.51C77.09 0 80.01 2.92 80.01 6.5V73.51C80.01 77.1 77.1 80.01 73.51 80.01ZM6.5 3C4.57 3 3 4.57 3 6.5V73.51C3 75.44 4.57 77.01 6.5 77.01H73.51C75.44 77.01 77.01 75.44 77.01 73.51V6.5C77.01 4.57 75.44 3 73.51 3H6.5Z" fill="#9292A1"/>
<path d="M40.01 64.77C26.35 64.77 15.24 53.66 15.24 40C15.24 26.34 26.35 15.23 40.01 15.23C53.67 15.23 64.78 26.34 64.78 40C64.78 53.66 53.66 64.77 40.01 64.77ZM40.01 18.24C28.01 18.24 18.24 28 18.24 40.01C18.24 52.02 28 61.77 40.01 61.77C52.02 61.77 61.78 52.01 61.78 40C61.78 27.99 52.01 18.24 40.01 18.24Z" fill="#9292A1"/>
<path d="M46.79 50.9702C46.42 50.9702 46.04 50.8802 45.7 50.7002L40.02 47.7102L34.34 50.7002C33.54 51.1202 32.6 51.0502 31.87 50.5202C31.14 49.9902 30.79 49.1102 30.94 48.2302L32 41.8902L27.4 37.4102C26.76 36.7802 26.53 35.8602 26.81 35.0002C27.09 34.1402 27.81 33.5302 28.7 33.4002L35.05 32.4802L37.89 26.7202C38.29 25.9102 39.09 25.4102 39.99 25.4102C40.89 25.4102 41.7 25.9102 42.09 26.7202L44.93 32.4802L51.29 33.4002C52.18 33.5302 52.91 34.1402 53.18 35.0002C53.46 35.8602 53.23 36.7802 52.59 37.4102L47.99 41.8902L49.08 48.2202C49.23 49.1102 48.87 49.9902 48.15 50.5102C47.75 50.8102 47.27 50.9702 46.79 50.9702ZM30.45 36.1802L34.35 39.9802C34.9 40.5202 35.16 41.3002 35.02 42.0602L34.1 47.4202L38.92 44.8902C39.6 44.5302 40.42 44.5302 41.1 44.8902L45.92 47.4202L45 42.0602C44.87 41.3002 45.12 40.5202 45.67 39.9802L49.57 36.1802L44.19 35.4002C43.43 35.2902 42.77 34.8102 42.43 34.1202L40.02 29.2402L37.61 34.1202C37.27 34.8102 36.61 35.2902 35.84 35.4002L30.45 36.1802Z" fill="#9292A1"/>
</g>
<defs>
<clipPath id="clip0_88_86">
<rect width="80.01" height="80.01" fill="white"/>
</clipPath>
</defs>
</svg>
