<svg width="81" height="80" viewBox="0 0 81 80" fill="none" xmlns="http://www.w3.org/2000/svg">
<g clip-path="url(#clip0_88_93)">
<path d="M78.52 79.96H4.53C2.03 79.96 0 77.93 0 75.43V1.5C0 0.67 0.67 0 1.5 0C2.33 0 3 0.67 3 1.5V75.43C3 76.27 3.69 76.96 4.53 76.96H78.52C79.35 76.96 80.02 77.63 80.02 78.46C80.02 79.29 79.35 79.96 78.52 79.96Z" fill="#9292A1"/>
<path d="M16.3199 68.3502C15.4899 68.3502 14.8199 67.6802 14.8199 66.8502V50.7002C14.8199 49.8702 15.4899 49.2002 16.3199 49.2002C17.1499 49.2002 17.8199 49.8702 17.8199 50.7002V66.8402C17.8199 67.6802 17.1399 68.3502 16.3199 68.3502Z" fill="#9292A1"/>
<path d="M31.1899 68.35C30.3599 68.35 29.6899 67.68 29.6899 66.85V19.5C29.6899 18.67 30.3599 18 31.1899 18C32.0199 18 32.6899 18.67 32.6899 19.5V66.85C32.6899 67.68 32.0199 68.35 31.1899 68.35Z" fill="#9292A1"/>
<path d="M46.0601 68.3501C45.2301 68.3501 44.5601 67.6801 44.5601 66.8501V34.5601C44.5601 33.7301 45.2301 33.0601 46.0601 33.0601C46.8901 33.0601 47.5601 33.7301 47.5601 34.5601V66.8501C47.5601 67.6801 46.8901 68.3501 46.0601 68.3501Z" fill="#9292A1"/>
<path d="M60.9301 68.3501C60.1001 68.3501 59.4301 67.6801 59.4301 66.8501V12.3501C59.4301 11.5201 60.1001 10.8501 60.9301 10.8501C61.7601 10.8501 62.4301 11.5201 62.4301 12.3501V66.8501C62.4301 67.6801 61.7601 68.3501 60.9301 68.3501Z" fill="#9292A1"/>
</g>
<defs>
<clipPath id="clip0_88_93">
<rect width="80.02" height="79.96" fill="white"/>
</clipPath>
</defs>
</svg>
