<svg width="81" height="81" viewBox="0 0 81 81" fill="none" xmlns="http://www.w3.org/2000/svg">
<g clip-path="url(#clip0_89_104)">
<path d="M73.51 0H6.5C2.92 0 0 2.92 0 6.5V73.51C0 77.09 2.92 80.01 6.5 80.01H73.51C77.09 80.01 80.01 77.09 80.01 73.51V6.5C80.01 2.92 77.1 0 73.51 0ZM77.01 73.51C77.01 75.44 75.44 77.01 73.51 77.01H6.5C4.57 77.01 3 75.44 3 73.51V6.5C3 4.57 4.57 3 6.5 3H73.51C75.44 3 77.01 4.57 77.01 6.5V73.51Z" fill="#9292A1"/>
<path d="M49.9899 47.8702C52.1299 45.2602 53.4099 41.9302 53.4099 38.3102C53.4099 29.9802 46.6299 23.2002 38.2999 23.2002C29.9699 23.2002 23.1899 29.9802 23.1899 38.3102C23.1899 46.6402 29.9699 53.4202 38.2999 53.4202C41.9299 53.4202 45.2599 52.1302 47.8599 50.0002L54.2499 56.3902C54.5399 56.6802 54.9299 56.8302 55.3099 56.8302C55.6899 56.8302 56.0799 56.6802 56.3699 56.3902C56.9599 55.8002 56.9599 54.8502 56.3699 54.2702L49.9899 47.8702ZM26.1999 38.3102C26.1999 31.6302 31.6299 26.2002 38.3099 26.2002C44.9899 26.2002 50.4199 31.6302 50.4199 38.3102C50.4199 41.6302 49.0699 44.6502 46.8999 46.8402C46.8899 46.8502 46.8699 46.8502 46.8599 46.8602C46.8499 46.8702 46.8499 46.8902 46.8399 46.9002C44.6499 49.0702 41.6399 50.4202 38.3099 50.4202C31.6299 50.4102 26.1999 44.9802 26.1999 38.3102Z" fill="#9292A1"/>
</g>
<defs>
<clipPath id="clip0_89_104">
<rect width="80.01" height="80.01" fill="white"/>
</clipPath>
</defs>
</svg>
