<svg width="81" height="81" viewBox="0 0 81 81" fill="none" xmlns="http://www.w3.org/2000/svg">
<g clip-path="url(#clip0_90_2)">
<path d="M73.51 80.01H6.5C2.92 80.01 0 77.09 0 73.51V6.5C0 2.92 2.92 0 6.5 0H73.51C77.09 0 80.01 2.92 80.01 6.5V73.51C80.01 77.1 77.1 80.01 73.51 80.01ZM6.5 3C4.57 3 3 4.57 3 6.5V73.51C3 75.44 4.57 77.01 6.5 77.01H73.51C75.44 77.01 77.01 75.44 77.01 73.51V6.5C77.01 4.57 75.44 3 73.51 3H6.5Z" fill="#9292A1"/>
<path d="M49.19 66.4698H30.83C29.62 66.4698 28.63 65.4798 28.63 64.2698V57.0598C28.63 55.8498 29.62 54.8598 30.83 54.8598H33.32L33.24 43.9298H30.83C29.62 43.9298 28.63 42.9398 28.63 41.7298V34.9998C28.63 33.7898 29.62 32.7998 30.83 32.7998H44.97C46.18 32.7998 47.17 33.7898 47.17 34.9998V54.6698H49.19C50.4 54.6698 51.39 55.6598 51.39 56.8698V64.2698C51.39 65.4798 50.4 66.4698 49.19 66.4698ZM31.62 63.4698H48.39V57.6598H46.37C45.16 57.6598 44.17 56.6698 44.17 55.4598V35.7898H31.62V40.9198H34.03C35.24 40.9198 36.22 41.8998 36.23 43.1098L36.32 55.6398C36.32 56.2298 36.1 56.7898 35.68 57.2098C35.26 57.6298 34.71 57.8598 34.12 57.8598H31.63V63.4698H31.62Z" fill="#9292A1"/>
<path d="M38.27 29.37C33.91 29.37 30.35 25.82 30.35 21.46C30.35 17.1 33.9 13.54 38.27 13.54C42.64 13.54 46.18 17.09 46.18 21.46C46.18 25.83 42.64 29.37 38.27 29.37ZM38.27 16.54C35.56 16.54 33.35 18.75 33.35 21.46C33.35 24.17 35.56 26.37 38.27 26.37C40.98 26.37 43.18 24.17 43.18 21.46C43.18 18.75 40.98 16.54 38.27 16.54Z" fill="#9292A1"/>
</g>
<defs>
<clipPath id="clip0_90_2">
<rect width="80.01" height="80.01" fill="white"/>
</clipPath>
</defs>
</svg>
