<svg width="81" height="81" viewBox="0 0 81 81" fill="none" xmlns="http://www.w3.org/2000/svg">
<g clip-path="url(#clip0_90_10)">
<path d="M73.51 0H6.5C2.92 0 0 2.92 0 6.5V73.51C0 77.09 2.92 80.01 6.5 80.01H73.51C77.09 80.01 80.01 77.09 80.01 73.51V6.5C80.01 2.92 77.1 0 73.51 0ZM77.01 73.51C77.01 75.44 75.44 77.01 73.51 77.01H6.5C4.57 77.01 3 75.44 3 73.51V6.5C3 4.57 4.57 3 6.5 3H73.51C75.44 3 77.01 4.57 77.01 6.5V73.51Z" fill="#9292A1"/>
<path d="M58.91 17.6001H21.1C19.17 17.6001 17.6 19.1701 17.6 21.1001V58.9101C17.6 60.8401 19.17 62.4101 21.1 62.4101H58.91C60.84 62.4101 62.41 60.8401 62.41 58.9101V21.1001C62.41 19.1701 60.84 17.6001 58.91 17.6001ZM21.1 20.6001H58.91C59.19 20.6001 59.41 20.8201 59.41 21.1001V37.4701L55.81 32.8101C55.37 32.2401 54.71 31.9101 53.99 31.8901C53.27 31.8601 52.6 32.1801 52.14 32.7301L42.87 43.7001L38.85 40.3701C37.89 39.5701 36.47 39.6601 35.62 40.5801L20.6 56.6801V21.1001C20.6 20.8301 20.83 20.6001 21.1 20.6001ZM58.91 59.4101H22.16L37.4 43.0601L41.45 46.4101C42.44 47.2301 43.93 47.1001 44.76 46.1101L53.93 35.2601L59.42 42.3701V58.9001C59.41 59.1901 59.19 59.4101 58.91 59.4101Z" fill="#9292A1"/>
<path d="M30.2901 35.7801C33.1101 35.7801 35.4001 33.4901 35.4001 30.6701C35.4001 27.8501 33.1101 25.5601 30.2901 25.5601C27.4701 25.5601 25.1801 27.8501 25.1801 30.6701C25.1801 33.4901 27.4701 35.7801 30.2901 35.7801ZM30.2901 28.5501C31.4501 28.5501 32.4001 29.5001 32.4001 30.6601C32.4001 31.8201 31.4501 32.7701 30.2901 32.7701C29.1201 32.7701 28.1801 31.8201 28.1801 30.6601C28.1801 29.5001 29.1201 28.5501 30.2901 28.5501Z" fill="#9292A1"/>
</g>
<defs>
<clipPath id="clip0_90_10">
<rect width="80.01" height="80.01" fill="white"/>
</clipPath>
</defs>
</svg>
