<svg width="81" height="81" viewBox="0 0 81 81" fill="none" xmlns="http://www.w3.org/2000/svg">
<g clip-path="url(#clip0_90_111)">
<path d="M73.51 0H6.5C2.92 0 0 2.92 0 6.5V73.51C0 77.09 2.92 80.01 6.5 80.01H73.51C77.09 80.01 80.01 77.09 80.01 73.51V6.5C80.01 2.92 77.1 0 73.51 0ZM77.01 73.51C77.01 75.44 75.44 77.01 73.51 77.01H6.5C4.57 77.01 3 75.44 3 73.51V6.5C3 4.57 4.57 3 6.5 3H73.51C75.44 3 77.01 4.57 77.01 6.5V73.51Z" fill="#9292A1"/>
<path d="M46.66 36.8101C45.83 36.8101 45.16 37.4801 45.16 38.3101C45.16 39.1401 45.83 39.8101 46.66 39.8101H48.79C49.62 39.8101 50.29 39.1401 50.29 38.3101C50.29 37.4801 49.62 36.8101 48.79 36.8101H46.66Z" fill="#9292A1"/>
<path d="M57.49 38.3101C57.49 37.4801 56.82 36.8101 55.99 36.8101H53.03C52.2 36.8101 51.53 37.4801 51.53 38.3101C51.53 39.1401 52.2 39.8101 53.03 39.8101H55.99C56.82 39.8101 57.49 39.1301 57.49 38.3101Z" fill="#9292A1"/>
<path d="M52.78 43.6902H46.66C45.83 43.6902 45.16 44.3602 45.16 45.1902V53.1602H38.98V43.4802C38.98 42.6502 38.31 41.9802 37.48 41.9802H27.14C26.31 41.9802 25.64 42.6502 25.64 43.4802V53.1602H19.46V23.4602H25.64V34.2902C25.64 35.1202 26.31 35.7902 27.14 35.7902H37.47C38.3 35.7902 38.97 35.1202 38.97 34.2902V23.4502H45.15V32.4002C45.15 33.2302 45.82 33.9002 46.65 33.9002H56.15C56.98 33.9002 57.65 33.2302 57.65 32.4002C57.65 31.5702 56.98 30.9002 56.15 30.9002H48.15V21.9502C48.15 21.1202 47.48 20.4502 46.65 20.4502H37.47C36.64 20.4502 35.97 21.1202 35.97 21.9502V32.7802H28.64V21.9502C28.64 21.1202 27.97 20.4502 27.14 20.4502H17.96C17.13 20.4502 16.46 21.1202 16.46 21.9502V54.6502C16.46 55.4802 17.13 56.1502 17.96 56.1502H27.14C27.97 56.1502 28.64 55.4802 28.64 54.6502V44.9702H35.97V54.6502C35.97 55.4802 36.64 56.1502 37.47 56.1502H46.65C47.48 56.1502 48.15 55.4802 48.15 54.6502V46.6802H52.77C53.6 46.6802 54.27 46.0102 54.27 45.1802C54.27 44.3502 53.61 43.6902 52.78 43.6902Z" fill="#9292A1"/>
<path d="M59.94 43.6899H57.54C56.71 43.6899 56.04 44.3599 56.04 45.1899C56.04 46.0199 56.71 46.6899 57.54 46.6899H59.94C60.77 46.6899 61.44 46.0199 61.44 45.1899C61.44 44.3599 60.77 43.6899 59.94 43.6899Z" fill="#9292A1"/>
<path d="M62.06 30.8999H60.86C60.03 30.8999 59.36 31.5699 59.36 32.3999C59.36 33.2299 60.03 33.8999 60.86 33.8999H62.06C62.89 33.8999 63.56 33.2299 63.56 32.3999C63.56 31.5699 62.88 30.8999 62.06 30.8999Z" fill="#9292A1"/>
<path d="M61.2699 36.8101H60.0699C59.2399 36.8101 58.5699 37.4801 58.5699 38.3101C58.5699 39.1401 59.2399 39.8101 60.0699 39.8101H61.2699C62.0999 39.8101 62.7699 39.1401 62.7699 38.3101C62.7699 37.4801 62.0999 36.8101 61.2699 36.8101Z" fill="#9292A1"/>
</g>
<defs>
<clipPath id="clip0_90_111">
<rect width="80.01" height="80.01" fill="white"/>
</clipPath>
</defs>
</svg>
