<svg width="81" height="81" viewBox="0 0 81 81" fill="none" xmlns="http://www.w3.org/2000/svg">
<g clip-path="url(#clip0_90_120)">
<path d="M73.51 0H6.5C2.92 0 0 2.92 0 6.5V73.51C0 77.09 2.92 80.01 6.5 80.01H73.51C77.09 80.01 80.01 77.09 80.01 73.51V6.5C80.01 2.92 77.1 0 73.51 0ZM77.01 73.51C77.01 75.44 75.44 77.01 73.51 77.01H6.5C4.57 77.01 3 75.44 3 73.51V6.5C3 4.57 4.57 3 6.5 3H73.51C75.44 3 77.01 4.57 77.01 6.5V73.51Z" fill="#9292A1"/>
<path d="M11.38 35.2502V38.5002L16.11 35.0902V50.1202H19V31.6802H16.34L11.38 35.2502Z" fill="#9292A1"/>
<path d="M32.79 43.3699C34.29 41.8199 35.33 40.5599 35.88 39.6299C36.45 38.6699 36.74 37.6499 36.74 36.6099C36.74 35.1399 36.14 33.8899 34.97 32.8799C33.81 31.8799 32.38 31.3799 30.72 31.3799C28.96 31.3799 27.47 31.9299 26.3 33.0199C25.11 34.1099 24.51 35.4999 24.51 37.1499V37.5399H27.02L27.4 37.5299V37.1499C27.4 36.2599 27.7 35.5399 28.33 34.9399C28.96 34.3399 29.72 34.0499 30.67 34.0499C31.56 34.0499 32.29 34.3099 32.91 34.8499C33.51 35.3799 33.81 35.9899 33.81 36.7399C33.81 37.3999 33.63 38.0399 33.28 38.6199C32.91 39.2399 32.13 40.1699 30.97 41.3999L24.64 48.0699V50.1199H37.06V47.4099H28.9L32.79 43.3699Z" fill="#9292A1"/>
<path d="M50.35 40.4501C50.91 40.1801 51.4 39.8101 51.8 39.3501C52.51 38.5301 52.87 37.5101 52.87 36.3201C52.87 34.8801 52.29 33.6801 51.15 32.7601C50.03 31.8501 48.62 31.3901 46.94 31.3901C45.2 31.3901 43.75 31.8701 42.64 32.8201C41.52 33.7701 40.89 35.0701 40.76 36.6701L40.73 37.0801H43.6L43.64 36.7401C43.73 35.9001 44.05 35.2601 44.61 34.7801C45.17 34.3001 45.93 34.0601 46.84 34.0601C47.84 34.0601 48.61 34.3001 49.13 34.7601C49.65 35.2201 49.9 35.8301 49.9 36.6301C49.9 37.4301 49.62 38.0601 49.05 38.5801C48.47 39.1001 47.74 39.3601 46.81 39.3601H44.31V41.9701H46.9C48.07 41.9701 49 42.2501 49.66 42.7901C50.31 43.3301 50.62 44.0401 50.62 44.9701C50.62 45.7801 50.3 46.4301 49.63 46.9601C48.94 47.5001 48.05 47.7701 46.97 47.7701C45.89 47.7701 45.01 47.5101 44.35 47.0101C43.7 46.5101 43.34 45.8701 43.26 45.0401L43.22 44.7001H40.37L40.39 45.1001C40.48 46.6901 41.13 47.9901 42.33 48.9801C43.51 49.9501 45.08 50.4401 46.99 50.4401C48.19 50.4401 49.3 50.2101 50.3 49.7601C51.3 49.3001 52.11 48.6401 52.71 47.7901C53.31 46.9401 53.61 45.9601 53.61 44.9001C53.61 43.5601 53.17 42.4501 52.31 41.6101C51.78 41.0601 51.12 40.6801 50.35 40.4501Z" fill="#9292A1"/>
<path d="M58.85 39.1599L61.16 41.0899L63.77 37.9499V49.7499H66.77V38.0699L69.18 41.0599L71.52 39.1899L65.29 31.4399L58.85 39.1599Z" fill="#9292A1"/>
</g>
<defs>
<clipPath id="clip0_90_120">
<rect width="80.01" height="80.01" fill="white"/>
</clipPath>
</defs>
</svg>
