<svg width="81" height="81" viewBox="0 0 81 81" fill="none" xmlns="http://www.w3.org/2000/svg">
<g clip-path="url(#clip0_90_127)">
<path d="M73.51 0H6.5C2.92 0 0 2.92 0 6.5V73.51C0 77.09 2.92 80.01 6.5 80.01H73.51C77.09 80.01 80.01 77.09 80.01 73.51V6.5C80.01 2.92 77.1 0 73.51 0ZM77.01 73.51C77.01 75.44 75.44 77.01 73.51 77.01H6.5C4.57 77.01 3 75.44 3 73.51V6.5C3 4.57 4.57 3 6.5 3H73.51C75.44 3 77.01 4.57 77.01 6.5V73.51Z" fill="#9292A1"/>
<path d="M59.23 36.5902C60.15 34.7002 59.42 32.4502 57.57 31.4702L54.56 29.8702C54.34 29.7502 54.19 29.5402 54.14 29.3002L53.55 25.9402C53.19 23.8702 51.28 22.4802 49.19 22.7802L45.82 23.2602C45.57 23.2902 45.33 23.2202 45.15 23.0402L42.7 20.6702C41.19 19.2102 38.82 19.2102 37.32 20.6702L34.87 23.0402C34.69 23.2102 34.44 23.2902 34.2 23.2602L30.83 22.7802C28.74 22.4802 26.84 23.8802 26.47 25.9502L25.88 29.3102C25.84 29.5602 25.68 29.7702 25.46 29.8802L22.45 31.4802C20.59 32.4602 19.86 34.7102 20.79 36.6002L22.29 39.6602C22.4 39.8902 22.4 40.1402 22.29 40.3702L20.79 43.4302C19.87 45.3202 20.6 47.5702 22.45 48.5502L25.46 50.1502C25.68 50.2702 25.83 50.4802 25.88 50.7202L26.47 54.0802C26.83 56.1202 28.72 57.5502 30.83 57.2402L34.2 56.7602C34.45 56.7202 34.69 56.8002 34.87 56.9802L37.32 59.3502C38.05 60.0602 39.01 60.4502 40.01 60.4502C41.02 60.4502 41.97 60.0602 42.7 59.3502L45.15 56.9802C45.33 56.8102 45.58 56.7302 45.82 56.7602L49.19 57.2402C51.28 57.5402 53.18 56.1402 53.55 54.0802L54.14 50.7202C54.18 50.4702 54.34 50.2602 54.56 50.1502L57.57 48.5502C59.43 47.5702 60.16 45.3202 59.23 43.4302L57.73 40.3702C57.62 40.1402 57.62 39.8902 57.73 39.6602L59.23 36.5902ZM54.98 41.7102L56.48 44.7702C56.67 45.1602 56.52 45.6302 56.13 45.8402L53.12 47.4402C52.06 48.0002 51.33 49.0102 51.12 50.1902L50.53 53.5502C50.45 53.9802 50.05 54.2702 49.62 54.2102L46.25 53.7302C45.06 53.5602 43.88 53.9402 43.02 54.7802L40.57 57.1502C40.25 57.4502 39.76 57.4502 39.45 57.1502L37 54.7802C36.27 54.0802 35.32 53.6902 34.32 53.6902C34.14 53.6902 33.95 53.7002 33.77 53.7302L30.4 54.2102C29.97 54.2702 29.57 53.9802 29.49 53.5502L28.9 50.1902C28.69 49.0102 27.96 48.0002 26.9 47.4402L23.89 45.8402C23.5 45.6302 23.35 45.1602 23.54 44.7702L25.04 41.7102C25.57 40.6302 25.57 39.3902 25.04 38.3102L23.54 35.2502C23.35 34.8602 23.5 34.3902 23.89 34.1802L26.9 32.5802C27.96 32.0202 28.69 31.0102 28.9 29.8302L29.49 26.4702C29.57 26.0402 29.97 25.7502 30.4 25.8102L33.77 26.2902C34.96 26.4602 36.14 26.0802 37 25.2402L39.45 22.8702C39.77 22.5702 40.26 22.5702 40.57 22.8702L43.02 25.2402C43.88 26.0802 45.06 26.4602 46.25 26.2902L49.62 25.8102C50.05 25.7502 50.45 26.0402 50.53 26.4702L51.12 29.8302C51.33 31.0202 52.06 32.0202 53.12 32.5802L56.13 34.1802C56.52 34.3902 56.67 34.8502 56.48 35.2502L54.98 38.3102C54.46 39.3902 54.46 40.6302 54.98 41.7102Z" fill="#9292A1"/>
<path d="M48.46 31.56C47.88 30.98 46.93 30.98 46.35 31.56L31.56 46.34C30.98 46.92 30.98 47.87 31.56 48.45C31.84 48.73 32.22 48.89 32.62 48.89C33.02 48.89 33.4 48.73 33.68 48.45L48.47 33.66C49.04 33.09 49.04 32.14 48.46 31.56Z" fill="#9292A1"/>
<path d="M35.53 38.5098C38 38.5098 40.01 36.4998 40.01 34.0298C40.01 31.5598 38 29.5498 35.53 29.5498C33.06 29.5498 31.05 31.5598 31.05 34.0298C31.05 36.4998 33.05 38.5098 35.53 38.5098ZM35.53 32.5398C36.35 32.5398 37.0201 33.2098 37.0201 34.0298C37.0201 34.8498 36.35 35.5198 35.53 35.5198C34.71 35.5198 34.0401 34.8498 34.0401 34.0298C34.0401 33.2098 34.7 32.5398 35.53 32.5398Z" fill="#9292A1"/>
<path d="M44.49 41.5C42.02 41.5 40.01 43.51 40.01 45.98C40.01 48.45 42.02 50.46 44.49 50.46C46.96 50.46 48.97 48.45 48.97 45.98C48.97 43.51 46.96 41.5 44.49 41.5ZM44.49 47.47C43.67 47.47 43 46.8 43 45.98C43 45.16 43.67 44.49 44.49 44.49C45.31 44.49 45.98 45.16 45.98 45.98C45.98 46.8 45.31 47.47 44.49 47.47Z" fill="#9292A1"/>
</g>
<defs>
<clipPath id="clip0_90_127">
<rect width="80.01" height="80.01" fill="white"/>
</clipPath>
</defs>
</svg>
