<svg width="81" height="81" viewBox="0 0 81 81" fill="none" xmlns="http://www.w3.org/2000/svg">
<g clip-path="url(#clip0_90_134)">
<path d="M73.51 0H6.5C2.92 0 0 2.92 0 6.5V73.51C0 77.09 2.92 80.01 6.5 80.01H73.51C77.09 80.01 80.01 77.09 80.01 73.51V6.5C80.01 2.92 77.1 0 73.51 0ZM77.01 73.51C77.01 75.44 75.44 77.01 73.51 77.01H6.5C4.57 77.01 3 75.44 3 73.51V6.5C3 4.57 4.57 3 6.5 3H73.51C75.44 3 77.01 4.57 77.01 6.5V73.51Z" fill="#9292A1"/>
<path d="M25.24 15.7598H17.24C15.86 15.7598 14.74 16.8798 14.74 18.2598V26.2598C14.74 27.6398 15.86 28.7598 17.24 28.7598H25.24C26.62 28.7598 27.74 27.6398 27.74 26.2598V18.2598C27.74 16.8798 26.62 15.7598 25.24 15.7598ZM24.74 25.7598H17.74V18.7598H24.74V25.7598Z" fill="#9292A1"/>
<path d="M44.01 15.7598H36.01C34.63 15.7598 33.51 16.8798 33.51 18.2598V26.2598C33.51 27.6398 34.63 28.7598 36.01 28.7598H44.01C45.39 28.7598 46.51 27.6398 46.51 26.2598V18.2598C46.51 16.8798 45.39 15.7598 44.01 15.7598ZM43.51 25.7598H36.51V18.7598H43.51V25.7598Z" fill="#9292A1"/>
<path d="M62.77 15.7598H54.77C53.39 15.7598 52.27 16.8798 52.27 18.2598V26.2598C52.27 27.6398 53.39 28.7598 54.77 28.7598H62.77C64.15 28.7598 65.27 27.6398 65.27 26.2598V18.2598C65.27 16.8798 64.15 15.7598 62.77 15.7598ZM62.27 25.7598H55.27V18.7598H62.27V25.7598Z" fill="#9292A1"/>
<path d="M25.24 33.5098H17.24C15.86 33.5098 14.74 34.6298 14.74 36.0098V44.0098C14.74 45.3898 15.86 46.5098 17.24 46.5098H25.24C26.62 46.5098 27.74 45.3898 27.74 44.0098V36.0098C27.74 34.6298 26.62 33.5098 25.24 33.5098ZM24.74 43.5098H17.74V36.5098H24.74V43.5098Z" fill="#9292A1"/>
<path d="M44.01 33.5098H36.01C34.63 33.5098 33.51 34.6298 33.51 36.0098V44.0098C33.51 45.3898 34.63 46.5098 36.01 46.5098H44.01C45.39 46.5098 46.51 45.3898 46.51 44.0098V36.0098C46.51 34.6298 45.39 33.5098 44.01 33.5098ZM43.51 43.5098H36.51V36.5098H43.51V43.5098Z" fill="#9292A1"/>
<path d="M62.77 33.5098H54.77C53.39 33.5098 52.27 34.6298 52.27 36.0098V44.0098C52.27 45.3898 53.39 46.5098 54.77 46.5098H62.77C64.15 46.5098 65.27 45.3898 65.27 44.0098V36.0098C65.27 34.6298 64.15 33.5098 62.77 33.5098ZM62.27 43.5098H55.27V36.5098H62.27V43.5098Z" fill="#9292A1"/>
<path d="M25.24 51.25H17.24C15.86 51.25 14.74 52.37 14.74 53.75V61.75C14.74 63.13 15.86 64.25 17.24 64.25H25.24C26.62 64.25 27.74 63.13 27.74 61.75V53.75C27.74 52.37 26.62 51.25 25.24 51.25ZM24.74 61.25H17.74V54.25H24.74V61.25Z" fill="#9292A1"/>
<path d="M44.01 51.25H36.01C34.63 51.25 33.51 52.37 33.51 53.75V61.75C33.51 63.13 34.63 64.25 36.01 64.25H44.01C45.39 64.25 46.51 63.13 46.51 61.75V53.75C46.51 52.37 45.39 51.25 44.01 51.25ZM43.51 61.25H36.51V54.25H43.51V61.25Z" fill="#9292A1"/>
<path d="M62.77 51.25H54.77C53.39 51.25 52.27 52.37 52.27 53.75V61.75C52.27 63.13 53.39 64.25 54.77 64.25H62.77C64.15 64.25 65.27 63.13 65.27 61.75V53.75C65.27 52.37 64.15 51.25 62.77 51.25ZM62.27 61.25H55.27V54.25H62.27V61.25Z" fill="#9292A1"/>
</g>
<defs>
<clipPath id="clip0_90_134">
<rect width="80.01" height="80.01" fill="white"/>
</clipPath>
</defs>
</svg>
