<svg width="81" height="81" viewBox="0 0 81 81" fill="none" xmlns="http://www.w3.org/2000/svg">
<g clip-path="url(#clip0_90_146)">
<path d="M73.51 0H6.5C2.92 0 0 2.92 0 6.5V73.51C0 77.09 2.92 80.01 6.5 80.01H73.51C77.09 80.01 80.01 77.09 80.01 73.51V6.5C80.01 2.92 77.1 0 73.51 0ZM6.5 3H73.51C75.44 3 77.01 4.57 77.01 6.5V10.13H3V6.5C3 4.57 4.57 3 6.5 3ZM38.51 77.01H21.77V64.33H38.5V77.01H38.51ZM38.51 61.33H21.77V48.24H38.5V61.33H38.51ZM58.24 13.13V27.68H41.51V13.13H58.24ZM38.51 27.69H21.77V13.13H38.5V27.69H38.51ZM18.77 27.69H3V13.13H18.77V27.69ZM18.77 30.69V45.24H3V30.69H18.77ZM18.77 48.24V61.33H3V48.24H18.77ZM21.77 45.24V30.69H38.5V45.24H21.77ZM41.51 30.69H58.24V45.24H41.51V30.69ZM61.24 30.69H77.01V45.24H61.24V30.69ZM61.24 27.69V13.13H77.01V27.68H61.24V27.69ZM3 73.51V64.32H18.77V77.01H6.5C4.57 77.01 3 75.44 3 73.51ZM73.51 77.01H41.51V48.24H77.02V73.51C77.01 75.44 75.44 77.01 73.51 77.01Z" fill="#9292A1"/>
<path d="M56.22 69.98C54.84 69.98 53.72 71.1 53.72 72.48C53.72 73.86 54.84 74.98 56.22 74.98C57.6 74.98 58.72 73.86 58.72 72.48C58.72 71.1 57.6 69.98 56.22 69.98ZM56.22 72.98C55.94 72.98 55.72 72.76 55.72 72.48C55.72 72.2 55.94 71.98 56.22 71.98C56.5 71.98 56.72 72.2 56.72 72.48C56.72 72.76 56.5 72.98 56.22 72.98Z" fill="#9292A1"/>
<path d="M65.22 69.98C63.84 69.98 62.72 71.1 62.72 72.48C62.72 73.86 63.84 74.98 65.22 74.98C66.6 74.98 67.72 73.86 67.72 72.48C67.72 71.1 66.6 69.98 65.22 69.98ZM65.22 72.98C64.94 72.98 64.72 72.76 64.72 72.48C64.72 72.2 64.94 71.98 65.22 71.98C65.5 71.98 65.72 72.2 65.72 72.48C65.72 72.76 65.5 72.98 65.22 72.98Z" fill="#9292A1"/>
<path d="M69.22 55.6699H53.45L52.69 51.8799C52.55 51.1799 51.93 50.6699 51.22 50.6699H47.22C46.39 50.6699 45.72 51.3399 45.72 52.1699C45.72 52.9999 46.39 53.6699 47.22 53.6699H49.99L50.74 57.4099C50.75 57.4499 50.75 57.4799 50.76 57.5199L52.43 65.8499C52.76 67.4899 54.19 68.6699 55.83 68.6699C55.85 68.6699 55.87 68.6699 55.9 68.6699H65.59C67.26 68.7099 68.76 67.5199 69.09 65.8399L70.69 57.4499C70.77 57.0099 70.66 56.5599 70.37 56.2099C70.09 55.8699 69.67 55.6699 69.22 55.6699ZM66.15 65.2699C66.1 65.5099 65.87 65.6599 65.62 65.6699H55.87H55.86C55.62 65.6699 55.42 65.4999 55.37 65.2699L54.05 58.6699H67.41L66.15 65.2699Z" fill="#9292A1"/>
</g>
<defs>
<clipPath id="clip0_90_146">
<rect width="80.01" height="80.01" fill="white"/>
</clipPath>
</defs>
</svg>
