<svg width="81" height="81" viewBox="0 0 81 81" fill="none" xmlns="http://www.w3.org/2000/svg">
<g clip-path="url(#clip0_91_2)">
<path d="M73.51 80.01H6.5C2.92 80.01 0 77.09 0 73.51V6.5C0 2.92 2.92 0 6.5 0H73.51C77.09 0 80.01 2.92 80.01 6.5V73.51C80.01 77.1 77.1 80.01 73.51 80.01ZM6.5 3C4.57 3 3 4.57 3 6.5V73.51C3 75.44 4.57 77.01 6.5 77.01H73.51C75.44 77.01 77.01 75.44 77.01 73.51V6.5C77.01 4.57 75.44 3 73.51 3H6.5Z" fill="#9292A1"/>
<path d="M55.99 46.8901C55.61 46.8901 55.22 46.7401 54.93 46.4501C54.34 45.8601 54.34 44.9101 54.93 44.3301L62.26 37.0001L54.88 29.6201C54.29 29.0301 54.29 28.0801 54.88 27.5001C55.47 26.9101 56.42 26.9101 57 27.5001L65.44 35.9401C66.03 36.5301 66.03 37.4801 65.44 38.0601L57.05 46.4501C56.76 46.7501 56.37 46.8901 55.99 46.8901Z" fill="#9292A1"/>
<path d="M24.02 46.8901C23.64 46.8901 23.25 46.7401 22.96 46.4501L14.57 38.0601C14.29 37.7801 14.13 37.4001 14.13 37.0001C14.13 36.6001 14.29 36.2201 14.57 35.9401L23.01 27.5001C23.6 26.9101 24.55 26.9101 25.13 27.5001C25.71 28.0901 25.72 29.0401 25.13 29.6201L17.75 37.0001L25.08 44.3301C25.67 44.9201 25.67 45.8701 25.08 46.4501C24.79 46.7501 24.41 46.8901 24.02 46.8901Z" fill="#9292A1"/>
<path d="M30.46 43.0098C28.81 43.0098 27.46 41.6598 27.46 40.0098C27.46 38.3598 28.81 37.0098 30.46 37.0098C32.11 37.0098 33.46 38.3598 33.46 40.0098C33.46 41.6598 32.12 43.0098 30.46 43.0098Z" fill="#9292A1"/>
<path d="M39.51 43.0098C37.86 43.0098 36.51 41.6598 36.51 40.0098C36.51 38.3598 37.86 37.0098 39.51 37.0098C41.16 37.0098 42.51 38.3598 42.51 40.0098C42.51 41.6598 41.16 43.0098 39.51 43.0098Z" fill="#9292A1"/>
<path d="M48.55 43.0098C46.9 43.0098 45.55 41.6598 45.55 40.0098C45.55 38.3598 46.9 37.0098 48.55 37.0098C50.2 37.0098 51.55 38.3598 51.55 40.0098C51.55 41.6598 50.2 43.0098 48.55 43.0098Z" fill="#9292A1"/>
</g>
<defs>
<clipPath id="clip0_91_2">
<rect width="80.01" height="80.01" fill="white"/>
</clipPath>
</defs>
</svg>
