<svg width="81" height="81" viewBox="0 0 81 81" fill="none" xmlns="http://www.w3.org/2000/svg">
<g clip-path="url(#clip0_92_15)">
<path d="M73.51 0H6.5C2.92 0 0 2.92 0 6.5V27.57C0 31.15 2.92 34.07 6.5 34.07H31.07V32.51C31.07 32.02 31.12 31.54 31.2 31.07H6.5C4.57 31.07 3 29.5 3 27.57V6.5C3 4.57 4.57 3 6.5 3H73.51C75.44 3 77.01 4.57 77.01 6.5V27.57C77.01 29.5 75.44 31.07 73.51 31.07H48.49C48.57 31.54 48.62 32.02 48.62 32.51V34.07H73.51C77.09 34.07 80.01 31.15 80.01 27.57V6.5C80.01 2.92 77.1 0 73.51 0Z" fill="#9292A1"/>
<path d="M39.85 29.7402C41.38 29.7402 42.62 30.9802 42.62 32.5102V46.6602C42.62 48.7002 43.91 50.5302 45.83 51.2202L62.75 57.2902L58.67 77.0002H32.9L17.92 60.6202C16.76 59.3502 16.8 57.4002 18.02 56.1902C18.63 55.5802 19.43 55.2502 20.29 55.2502C21.16 55.2502 21.97 55.5902 22.58 56.2202L30.55 64.3802C31.27 65.1202 32.23 65.5202 33.26 65.5202C35.36 65.5202 37.06 63.8202 37.06 61.7202V32.5202C37.07 30.9802 38.32 29.7402 39.85 29.7402ZM39.85 26.7402C36.66 26.7402 34.08 29.3302 34.08 32.5102V61.7102C34.08 62.1902 33.69 62.5102 33.28 62.5102C33.08 62.5102 32.88 62.4402 32.72 62.2702L24.75 54.1102C23.53 52.8702 21.92 52.2402 20.31 52.2402C18.72 52.2402 17.13 52.8502 15.92 54.0602C13.57 56.4102 13.49 60.1902 15.73 62.6402L31.6 80.0002H61.15L65.92 56.9102C66.11 56.0102 65.6 55.1102 64.74 54.8002L46.84 48.4002C46.11 48.1402 45.62 47.4402 45.62 46.6602V32.5102C45.62 29.3202 43.03 26.7402 39.85 26.7402Z" fill="#9292A1"/>
</g>
<defs>
<clipPath id="clip0_92_15">
<rect width="80.01" height="80.01" fill="white"/>
</clipPath>
</defs>
</svg>
