<svg width="80" height="80" viewBox="0 0 80 80" fill="none" xmlns="http://www.w3.org/2000/svg">
<g clip-path="url(#clip0_92_19)">
<path d="M39.6201 29.7402C41.1501 29.7402 42.3901 30.9802 42.3901 32.5102V46.6602C42.3901 48.7002 43.6801 50.5302 45.6001 51.2202L62.5201 57.2902L58.4401 77.0002H32.6701L17.7001 60.6202C16.5401 59.3502 16.5801 57.4002 17.8001 56.1902C18.4101 55.5802 19.2101 55.2502 20.0701 55.2502C20.9401 55.2502 21.7501 55.5902 22.3601 56.2202L30.3301 64.3802C31.0501 65.1202 32.0101 65.5202 33.0401 65.5202C35.1401 65.5202 36.8401 63.8202 36.8401 61.7202V32.5202C36.8501 30.9802 38.0901 29.7402 39.6201 29.7402ZM39.6201 26.7402C36.4301 26.7402 33.8501 29.3302 33.8501 32.5102V61.7102C33.8501 62.1902 33.4601 62.5102 33.0501 62.5102C32.8501 62.5102 32.6501 62.4402 32.4901 62.2702L24.5201 54.1102C23.3001 52.8702 21.6901 52.2402 20.0801 52.2402C18.4901 52.2402 16.9001 52.8502 15.6901 54.0602C13.3401 56.4102 13.2601 60.1902 15.5001 62.6402L31.3701 80.0002H60.9001L65.6701 56.9102C65.8601 56.0102 65.3501 55.1102 64.4901 54.8002L46.6201 48.4002C45.8901 48.1402 45.4001 47.4402 45.4001 46.6602V32.5102C45.4001 29.3202 42.8101 26.7402 39.6201 26.7402Z" fill="#9292A1"/>
<path d="M49.7899 41.5102C49.4899 41.5102 49.1799 41.4202 48.9099 41.2302C48.2399 40.7402 48.0899 39.8102 48.5699 39.1402C49.9099 37.2902 50.6199 35.0902 50.6199 32.7902C50.6199 26.8102 45.7599 21.9502 39.7799 21.9502C33.7999 21.9502 28.9399 26.8102 28.9399 32.7902C28.9399 34.7102 29.4499 36.6002 30.4099 38.2502C30.8299 38.9702 30.5899 39.8802 29.8699 40.3002C29.1499 40.7202 28.2399 40.4802 27.8199 39.7602C26.5899 37.6502 25.9399 35.2402 25.9399 32.7902C25.9399 25.1602 32.1499 18.9502 39.7799 18.9502C47.4099 18.9502 53.6199 25.1602 53.6199 32.7902C53.6199 35.7202 52.7099 38.5302 50.9999 40.9002C50.7099 41.2902 50.2499 41.5102 49.7899 41.5102Z" fill="#9292A1"/>
<path d="M58.46 45.3198C58.2 45.3198 57.94 45.2498 57.7 45.1098C56.99 44.6898 56.75 43.7698 57.17 43.0598C59 39.9598 59.97 36.4098 59.97 32.7898C59.97 21.6598 50.91 12.5998 39.78 12.5998C28.65 12.5998 19.59 21.6598 19.59 32.7898C19.59 36.0998 20.41 39.3798 21.95 42.2698C22.34 42.9998 22.06 43.9098 21.33 44.2998C20.6 44.6898 19.69 44.4098 19.3 43.6798C17.53 40.3498 16.59 36.5798 16.59 32.7898C16.59 19.9998 26.99 9.58984 39.78 9.58984C52.57 9.58984 62.97 19.9998 62.97 32.7798C62.97 36.9398 61.86 41.0198 59.75 44.5798C59.47 45.0598 58.97 45.3198 58.46 45.3198Z" fill="#9292A1"/>
<path d="M66.93 49.84C66.68 49.84 66.42 49.78 66.18 49.64C65.46 49.23 65.21 48.31 65.63 47.59C68.21 43.11 69.57 37.98 69.57 32.78C69.57 16.36 56.21 3 39.78 3C23.36 3 10 16.36 10 32.78C10 37.66 11.21 42.5 13.49 46.78C13.88 47.51 13.6 48.42 12.87 48.81C12.14 49.2 11.23 48.92 10.84 48.19C8.33 43.48 7 38.15 7 32.78C7 14.71 21.71 0 39.78 0C57.86 0 72.56 14.71 72.56 32.78C72.56 38.51 71.06 44.15 68.22 49.09C67.95 49.57 67.45 49.84 66.93 49.84Z" fill="#9292A1"/>
</g>
<defs>
<clipPath id="clip0_92_19">
<rect width="80" height="80" fill="white"/>
</clipPath>
</defs>
</svg>
