<svg width="80" height="80" viewBox="0 0 80 80" fill="none" xmlns="http://www.w3.org/2000/svg">
<g clip-path="url(#clip0_86_2)">
<path d="M59.68 0H20.3C18.64 0 17.3 1.34 17.3 3V77C17.3 78.66 18.64 80 20.3 80H59.68C61.34 80 62.68 78.66 62.68 77V3C62.68 1.34 61.34 0 59.68 0ZM59.68 3V15.43H20.3V3H59.68ZM20.3 77V18.43H59.68V77H20.3Z" fill="#9292A1"/>
<path d="M75.31 5.02979H64.83V8.02978H75.31C76.23 8.02978 76.98 8.66978 76.98 9.44978V20.6498H64.83V23.6498H76.98V70.4998C76.98 71.2798 76.23 71.9198 75.31 71.9198H64.83V74.9198H75.31C77.89 74.9198 79.98 72.9398 79.98 70.4998V9.43978C79.98 7.00978 77.89 5.02979 75.31 5.02979Z" fill="#9292A1"/>
<path d="M0 9.44002V70.5C0 72.94 2.1 74.92 4.67 74.92H15.15V71.92H4.67C3.75 71.92 3 71.28 3 70.5V23.64H15.15V20.64H3V9.44002C3 8.66002 3.75 8.02002 4.67 8.02002H15.15V5.02002H4.67C2.1 5.03002 0 7.01002 0 9.44002Z" fill="#9292A1"/>
<path d="M40.9101 37.2802C43.4701 37.8302 45.0901 40.0102 45.1401 40.6402C45.1401 41.4702 45.8101 42.1402 46.6401 42.1402C47.4701 42.1402 48.1401 41.4702 48.1401 40.6402C48.1401 38.3002 44.9901 34.8402 40.9101 34.2502V31.9902C40.9101 31.1602 40.2401 30.4902 39.4101 30.4902C38.5801 30.4902 37.9101 31.1602 37.9101 31.9902V34.3202C34.0801 34.9802 30.6801 37.7302 30.6801 42.4102C30.6801 46.2402 34.1001 48.2602 37.4001 49.0102C37.5501 49.1402 37.7201 49.2302 37.9101 49.2902V58.4602C35.3501 57.9102 33.7301 55.7302 33.6801 55.1002C33.6801 54.2702 33.0101 53.6002 32.1801 53.6002C31.3501 53.6002 30.6801 54.2702 30.6801 55.1002C30.6801 57.4402 33.8301 60.9002 37.9101 61.4902V63.7502C37.9101 64.5802 38.5801 65.2502 39.4101 65.2502C40.2401 65.2502 40.9101 64.5802 40.9101 63.7502V61.4202C44.7401 60.7602 48.1401 58.0102 48.1401 53.3302C48.1401 49.5002 44.7201 47.4802 41.4201 46.7302C41.2701 46.6002 41.1001 46.5102 40.9101 46.4502V37.2802V37.2802ZM33.6801 42.4002C33.6801 39.5502 35.6501 37.9302 37.9101 37.3702V46.0102C35.9401 45.5502 33.6801 44.5102 33.6801 42.4002ZM45.1401 53.3302C45.1401 56.1802 43.1701 57.8002 40.9101 58.3602V49.7202C42.8701 50.1902 45.1401 51.2302 45.1401 53.3302Z" fill="#9292A1"/>
</g>
<defs>
<clipPath id="clip0_86_2">
<rect width="79.98" height="80" fill="white"/>
</clipPath>
</defs>
</svg>
