<svg width="81" height="80" viewBox="0 0 81 80" fill="none" xmlns="http://www.w3.org/2000/svg">
<g clip-path="url(#clip0_87_8)">
<path d="M18 0H2C0.9 0 0 0.9 0 2V18C0 19.1 0.9 20 2 20H18C19.1 20 20 19.1 20 18V2C20 0.9 19.1 0 18 0ZM17 17H3V3H17V17Z" fill="#9292A1"/>
<path d="M27.9 11.5H78.53C79.36 11.5 80.03 10.83 80.03 10C80.03 9.17 79.36 8.5 78.53 8.5H27.9C27.07 8.5 26.4 9.17 26.4 10C26.4 10.83 27.07 11.5 27.9 11.5Z" fill="#9292A1"/>
<path d="M18 30H2C0.9 30 0 30.9 0 32V48C0 49.1 0.9 50 2 50H18C19.1 50 20 49.1 20 48V32C20 30.9 19.1 30 18 30ZM17 47H3V33H17V47Z" fill="#9292A1"/>
<path d="M78.53 38.5H27.9C27.07 38.5 26.4 39.17 26.4 40C26.4 40.83 27.07 41.5 27.9 41.5H78.53C79.36 41.5 80.03 40.83 80.03 40C80.03 39.17 79.36 38.5 78.53 38.5Z" fill="#9292A1"/>
<path d="M18 60H2C0.9 60 0 60.9 0 62V78C0 79.1 0.9 80 2 80H18C19.1 80 20 79.1 20 78V62C20 60.9 19.1 60 18 60ZM17 77H3V63H17V77Z" fill="#9292A1"/>
<path d="M78.53 68.5H27.9C27.07 68.5 26.4 69.17 26.4 70C26.4 70.83 27.07 71.5 27.9 71.5H78.53C79.36 71.5 80.03 70.83 80.03 70C80.03 69.17 79.36 68.5 78.53 68.5Z" fill="#9292A1"/>
<path d="M8 13H12C12.55 13 13 12.55 13 12V8C13 7.45 12.55 7 12 7H8C7.45 7 7 7.45 7 8V12C7 12.55 7.45 13 8 13Z" fill="#9292A1"/>
<path d="M8 43H12C12.55 43 13 42.55 13 42V38C13 37.45 12.55 37 12 37H8C7.45 37 7 37.45 7 38V42C7 42.55 7.45 43 8 43Z" fill="#9292A1"/>
<path d="M8 73H12C12.55 73 13 72.55 13 72V68C13 67.45 12.55 67 12 67H8C7.45 67 7 67.45 7 68V72C7 72.55 7.45 73 8 73Z" fill="#9292A1"/>
</g>
<defs>
<clipPath id="clip0_87_8">
<rect width="80.03" height="80" fill="white"/>
</clipPath>
</defs>
</svg>
