<svg width="80" height="81" viewBox="0 0 80 81" fill="none" xmlns="http://www.w3.org/2000/svg">
<g clip-path="url(#clip0_88_19)">
<path d="M11.02 14.33C10.76 14.33 10.49 14.27 10.24 14.14L7.44003 12.67L4.64003 14.14C4.07003 14.44 3.40003 14.39 2.88003 14.01C2.36003 13.63 2.11003 13.01 2.22003 12.38L2.75003 9.27L0.500028 7.06C0.0400275 6.61 -0.119972 5.96 0.0800275 5.35C0.280028 4.74 0.790027 4.31 1.43003 4.22L4.56003 3.77L5.96003 0.94C6.23003 0.36 6.81003 0 7.45003 0C8.09003 0 8.66003 0.36 8.95003 0.93L10.35 3.76L13.48 4.21C14.11 4.3 14.63 4.74 14.83 5.34C15.03 5.95 14.87 6.6 14.41 7.05L12.15 9.26L12.68 12.37C12.79 13 12.53 13.62 12.02 14C11.71 14.22 11.37 14.33 11.02 14.33ZM4.53003 6.8L5.36003 7.61C5.75003 7.99 5.93003 8.55 5.84003 9.09L5.64003 10.23L6.62003 9.72C7.14003 9.45 7.75003 9.45 8.27003 9.72L9.25003 10.23L9.05003 9.09C8.96003 8.54 9.14003 7.99 9.53003 7.61L10.36 6.8L9.22003 6.63C8.68003 6.55 8.21003 6.21 7.96003 5.72L7.45003 4.68L6.94003 5.72C6.69003 6.22 6.22003 6.56 5.68003 6.63L4.53003 6.8ZM5.25003 3.66C5.25003 3.66 5.24003 3.66 5.25003 3.66V3.66ZM9.64003 3.66C9.65003 3.66 9.65003 3.66 9.64003 3.66V3.66Z" fill="#9292A1"/>
<path d="M3.88003 30.7499C3.54003 30.7499 3.19003 30.6399 2.90003 30.4299C2.38003 30.0499 2.13003 29.4299 2.23003 28.7999L2.76003 25.6899L0.500028 23.4899C0.0400275 23.0399 -0.119972 22.3899 0.0800275 21.7799C0.280028 21.1699 0.790027 20.7399 1.43003 20.6499L4.56003 20.1999L5.96003 17.3699C6.24003 16.7999 6.82003 16.4399 7.46003 16.4399C8.10003 16.4399 8.67003 16.7999 8.96003 17.3699L10.36 20.1999L13.49 20.6499C14.12 20.7399 14.64 21.1799 14.84 21.7799C15.04 22.3899 14.88 23.0399 14.42 23.4899L12.16 25.6999L12.69 28.8099C12.8 29.4399 12.54 30.0699 12.02 30.4399C11.5 30.8099 10.83 30.8599 10.26 30.5599L7.47003 29.0899L4.67003 30.5599C4.41003 30.6899 4.14003 30.7499 3.88003 30.7499ZM4.53003 23.2199L5.36003 24.0299C5.75003 24.4099 5.93003 24.9699 5.84003 25.5099L5.64003 26.6499L6.62003 26.1399C7.14003 25.8699 7.75003 25.8699 8.27003 26.1399L9.25003 26.6499L9.05003 25.5099C8.96003 24.9699 9.14003 24.4199 9.53003 24.0299L10.36 23.2199L9.21003 23.0499C8.67003 22.9699 8.20003 22.6299 7.95003 22.1299L7.45003 21.0999L6.94003 22.1399C6.69003 22.6399 6.22003 22.9799 5.68003 23.0499L4.53003 23.2199ZM10.65 20.7999C10.65 20.8099 10.65 20.8099 10.65 20.7999V20.7999ZM5.25003 20.0799C5.25003 20.0799 5.24003 20.0799 5.25003 20.0799V20.0799ZM9.64003 20.0799C9.65003 20.0799 9.65003 20.0799 9.64003 20.0799V20.0799Z" fill="#9292A1"/>
<path d="M11.02 47.1701C10.76 47.1701 10.49 47.1101 10.24 46.9801L7.44003 45.5101L4.64003 46.9801C4.07003 47.2801 3.40003 47.2301 2.88003 46.8501C2.36003 46.4701 2.11003 45.8501 2.22003 45.2201L2.75003 42.1101L0.500028 39.9001C0.0400275 39.4501 -0.119972 38.8001 0.0800275 38.1901C0.280028 37.5801 0.790027 37.1501 1.43003 37.0601L4.56003 36.6101L5.96003 33.7801C6.24003 33.2101 6.82003 32.8501 7.46003 32.8501C8.10003 32.8501 8.67003 33.2101 8.96003 33.7801L10.36 36.6101L13.49 37.0601C14.12 37.1501 14.64 37.5901 14.84 38.1901C15.04 38.8001 14.88 39.4501 14.42 39.9001L12.16 42.1101L12.69 45.2201C12.8 45.8501 12.54 46.4701 12.03 46.8501C11.71 47.0601 11.37 47.1701 11.02 47.1701ZM4.53003 39.6401L5.36003 40.4501C5.75003 40.8301 5.93003 41.3801 5.84003 41.9201L5.64003 43.0701L6.62003 42.5601C7.14003 42.2901 7.75003 42.2901 8.27003 42.5601L9.25003 43.0701L9.05003 41.9301C8.96003 41.3901 9.14003 40.8401 9.53003 40.4501L10.36 39.6401L9.21003 39.4701C8.66003 39.3901 8.20003 39.0501 7.96003 38.5601L7.45003 37.5201L6.94003 38.5601C6.69003 39.0501 6.23003 39.3901 5.69003 39.4701L4.53003 39.6401Z" fill="#9292A1"/>
<path d="M3.88003 63.5898C3.54003 63.5898 3.19003 63.4798 2.90003 63.2698C2.38003 62.8898 2.13003 62.2698 2.23003 61.6398L2.76003 58.5298L0.500028 56.3298C0.0400275 55.8798 -0.119972 55.2298 0.0800275 54.6198C0.280028 54.0098 0.790027 53.5798 1.43003 53.4898L4.56003 53.0398L5.96003 50.2098C6.24003 49.6398 6.82003 49.2798 7.46003 49.2798C8.10003 49.2798 8.67003 49.6398 8.96003 50.2098L10.36 53.0398L13.49 53.4898C14.12 53.5798 14.64 54.0198 14.84 54.6198C15.04 55.2298 14.88 55.8798 14.42 56.3298L12.16 58.5398L12.69 61.6498C12.8 62.2798 12.54 62.9098 12.02 63.2798C11.5 63.6498 10.83 63.6998 10.26 63.3998L7.47003 61.9298L4.67003 63.3998C4.41003 63.5298 4.14003 63.5898 3.88003 63.5898ZM4.53003 56.0598L5.36003 56.8698C5.75003 57.2498 5.93003 57.8098 5.84003 58.3498L5.64003 59.4898L6.62003 58.9798C7.14003 58.7098 7.75003 58.7098 8.27003 58.9798L9.25003 59.4898L9.05003 58.3498C8.96003 57.8098 9.14003 57.2598 9.53003 56.8698L10.36 56.0598L9.21003 55.8898C8.67003 55.8098 8.20003 55.4698 7.95003 54.9698L7.44003 53.9298L6.93003 54.9698C6.68003 55.4698 6.21003 55.8098 5.67003 55.8798L4.53003 56.0598ZM10.65 53.6398C10.65 53.6498 10.65 53.6498 10.65 53.6398V53.6398ZM5.25003 52.9198C5.25003 52.9198 5.24003 52.9198 5.25003 52.9198V52.9198ZM9.64003 52.9198C9.65003 52.9198 9.65003 52.9198 9.64003 52.9198V52.9198Z" fill="#9292A1"/>
<path d="M11.02 80.0099C10.76 80.0099 10.49 79.9499 10.24 79.8199L7.44003 78.3499L4.64003 79.8199C4.07003 80.1199 3.40003 80.0699 2.88003 79.6899C2.36003 79.3099 2.11003 78.6899 2.22003 78.0599L2.75003 74.9499L0.500028 72.7399C0.0400275 72.2899 -0.119972 71.6399 0.0800275 71.0299C0.280028 70.4199 0.790027 69.9899 1.43003 69.8999L4.56003 69.4499L5.96003 66.6199C6.24003 66.0499 6.82003 65.6899 7.46003 65.6899C8.10003 65.6899 8.67003 66.0499 8.96003 66.6199L10.36 69.4499L13.49 69.8999C14.12 69.9899 14.64 70.4299 14.84 71.0299C15.04 71.6399 14.88 72.2899 14.42 72.7399L12.16 74.9499L12.69 78.0599C12.8 78.6899 12.54 79.3199 12.03 79.6899C11.71 79.8999 11.37 80.0099 11.02 80.0099ZM4.53003 72.4799L5.36003 73.2899C5.75003 73.6699 5.93003 74.2199 5.84003 74.7599L5.64003 75.9099L6.62003 75.3999C7.14003 75.1299 7.75003 75.1299 8.27003 75.3999L9.25003 75.9099L9.05003 74.7699C8.96003 74.2299 9.14003 73.6799 9.53003 73.2899L10.36 72.4799L9.21003 72.3099C8.66003 72.2299 8.20003 71.8899 7.96003 71.3999L7.45003 70.3599L6.94003 71.3999C6.69003 71.8899 6.23003 72.2299 5.69003 72.3099L4.53003 72.4799Z" fill="#9292A1"/>
<path d="M77.49 12.0498H23.04C21.66 12.0498 20.54 10.9298 20.54 9.54979V4.77979C20.54 3.39979 21.66 2.27979 23.04 2.27979H77.49C78.87 2.27979 79.99 3.39979 79.99 4.77979V9.54979C79.99 10.9298 78.87 12.0498 77.49 12.0498ZM23.54 9.04979H76.99V5.27979H23.54V9.04979Z" fill="#9292A1"/>
<path d="M64.44 28.4702H23.04C21.66 28.4702 20.54 27.3502 20.54 25.9702V21.2002C20.54 19.8202 21.66 18.7002 23.04 18.7002H64.44C65.82 18.7002 66.94 19.8202 66.94 21.2002V25.9702C66.94 27.3502 65.82 28.4702 64.44 28.4702ZM23.54 25.4702H63.94V21.7002H23.54V25.4702Z" fill="#9292A1"/>
<path d="M50.66 44.8901H23.04C21.66 44.8901 20.54 43.7701 20.54 42.3901V37.6201C20.54 36.2401 21.66 35.1201 23.04 35.1201H50.66C52.04 35.1201 53.16 36.2401 53.16 37.6201V42.3901C53.16 43.7701 52.04 44.8901 50.66 44.8901ZM23.54 41.8901H50.16V38.1201H23.54V41.8901Z" fill="#9292A1"/>
<path d="M38.99 61.31H23.04C21.66 61.31 20.54 60.19 20.54 58.81V54.04C20.54 52.66 21.66 51.54 23.04 51.54H38.99C40.37 51.54 41.49 52.66 41.49 54.04V58.81C41.49 60.19 40.37 61.31 38.99 61.31ZM23.54 58.31H38.49V54.54H23.54V58.31Z" fill="#9292A1"/>
<path d="M29.02 77.73H23.04C21.66 77.73 20.54 76.61 20.54 75.23V70.46C20.54 69.08 21.66 67.96 23.04 67.96H29.02C30.4 67.96 31.52 69.08 31.52 70.46V75.23C31.52 76.61 30.4 77.73 29.02 77.73ZM23.54 74.73H28.52V70.96H23.54V74.73Z" fill="#9292A1"/>
</g>
<defs>
<clipPath id="clip0_88_19">
<rect width="79.99" height="80.01" fill="white"/>
</clipPath>
</defs>
</svg>
