<svg width="80" height="80" viewBox="0 0 80 80" fill="none" xmlns="http://www.w3.org/2000/svg">
<g clip-path="url(#clip0_88_53)">
<path d="M55.09 66.1002C52.78 66.1002 50.9 64.2202 50.9 61.9102C50.9 59.6002 52.78 57.7202 55.09 57.7202C57.4 57.7202 59.28 59.6002 59.28 61.9102C59.28 64.2202 57.4 66.1002 55.09 66.1002ZM55.09 60.7102C54.43 60.7102 53.9 61.2402 53.9 61.9002C53.9 62.5602 54.44 63.0902 55.09 63.0902C55.74 63.0902 56.28 62.5602 56.28 61.9002C56.28 61.2402 55.75 60.7102 55.09 60.7102Z" fill="#9292A1"/>
<path d="M35.1301 66.1002C32.8201 66.1002 30.9401 64.2202 30.9401 61.9102C30.9401 59.6002 32.8201 57.7202 35.1301 57.7202C37.4401 57.7202 39.3201 59.6002 39.3201 61.9102C39.3201 64.2202 37.4401 66.1002 35.1301 66.1002ZM35.1301 60.7102C34.4701 60.7102 33.9401 61.2402 33.9401 61.9002C33.9401 62.5602 34.4801 63.0902 35.1301 63.0902C35.7801 63.0902 36.3201 62.5602 36.3201 61.9002C36.3201 61.2402 35.7801 60.7102 35.1301 60.7102Z" fill="#9292A1"/>
<path d="M33.76 55.5701C30.82 55.5701 28.25 53.5801 27.66 50.7901L21.51 16.5601H14.15C13.32 16.5601 12.65 15.8901 12.65 15.0601C12.65 14.2301 13.32 13.5601 14.15 13.5601H22.76C23.49 13.5601 24.11 14.0801 24.24 14.7901L26.3 26.2701H65.5C65.94 26.2701 66.36 26.4601 66.64 26.8001C66.93 27.1401 67.05 27.5801 66.97 28.0201L63.17 50.7201C62.56 53.6101 59.92 55.6501 56.91 55.5601H33.86C33.84 55.5701 33.8 55.5701 33.76 55.5701ZM26.84 29.2801L30.6 50.2201C30.89 51.5701 32.22 52.5701 33.78 52.5701C33.8 52.5701 33.82 52.5701 33.85 52.5701H56.96C58.56 52.6201 59.94 51.5901 60.24 50.1701L63.74 29.2801H26.84Z" fill="#9292A1"/>
<path d="M75.16 79.66H4.5C2.02 79.66 0 77.64 0 75.16V4.5C0 2.02 2.02 0 4.5 0H75.16C77.64 0 79.66 2.02 79.66 4.5V75.16C79.66 77.64 77.64 79.66 75.16 79.66ZM4.5 3C3.67 3 3 3.67 3 4.5V75.16C3 75.99 3.67 76.66 4.5 76.66H75.16C75.99 76.66 76.66 75.99 76.66 75.16V4.5C76.66 3.67 75.99 3 75.16 3H4.5Z" fill="#9292A1"/>
</g>
<defs>
<clipPath id="clip0_88_53">
<rect width="79.66" height="79.66" fill="white"/>
</clipPath>
</defs>
</svg>
