<svg width="80" height="80" viewBox="0 0 80 80" fill="none" xmlns="http://www.w3.org/2000/svg">
<path d="M65.1456 0H15.8123C13.2641 0 11.1802 2.02 11.1802 4.5V75.48C11.1802 77.96 13.2543 79.98 15.8123 79.98H65.1456C67.6938 79.98 69.7777 77.96 69.7777 75.48V4.5C69.7678 2.02 67.6938 0 65.1456 0ZM66.6863 75.48C66.6863 76.31 65.995 76.98 65.1456 76.98H15.8123C14.9629 76.98 14.2715 76.31 14.2715 75.48V4.5C14.2715 3.67 14.9629 3 15.8123 3H65.1456C65.995 3 66.6863 3.67 66.6863 4.5V75.48Z" fill="#9292A1"/>
<path d="M47.9901 19.5298C46.5481 19.4198 45.2049 20.2898 44.6715 21.6998C43.3876 25.0598 41.0468 24.7098 40.7802 24.6698L40.7703 24.7198C40.5925 24.7198 40.3851 24.7298 40.1777 24.7298L40.1678 24.6798C40.1382 24.6898 39.911 24.7298 39.5851 24.7098C39.5357 24.7098 39.4863 24.6998 39.4468 24.6998C38.5975 24.5998 37.2049 24.0698 36.3061 21.7098C35.7629 20.3098 34.4197 19.4298 32.9876 19.5398C26.9431 19.9998 22.7851 23.3998 19.5259 30.5798C18.9826 31.7798 19.3876 33.2098 20.474 33.9098C22.7654 35.3898 25.3925 36.3398 27.7728 36.5698V38.1898V57.1298C27.7728 58.9698 29.2444 60.4598 31.0617 60.4598H40.4938H49.9259C51.7431 60.4598 53.2147 58.9698 53.2147 57.1298V38.2098V36.5598C55.595 36.3298 58.2222 35.3798 60.5135 33.8998C61.5999 33.1998 62.0049 31.7698 61.4617 30.5698C58.1826 23.3898 54.0345 19.9898 47.9901 19.5298ZM53.195 33.5398V32.6498C53.195 31.8198 52.5333 31.1498 51.7135 31.1498C50.8938 31.1498 50.232 31.8198 50.232 32.6498V33.5398V57.1198C50.232 57.2998 50.0839 57.4498 49.9061 57.4498H40.474H31.0419C30.8641 57.4498 30.716 57.2998 30.716 57.1198V38.1798V33.5498V32.6298C30.716 31.7998 30.0543 31.1298 29.2345 31.1298C28.4147 31.1298 27.753 31.7998 27.753 32.6298V33.5398C26.2222 33.3398 24.2765 32.7498 22.3209 31.5398C25.1259 25.5098 28.2863 22.8898 33.1851 22.5198C33.3234 22.5098 33.4617 22.6198 33.5209 22.7798C35.2197 27.1998 38.637 27.8998 40.474 27.6498C42.311 27.8998 45.7283 27.1998 47.4271 22.7798C47.4864 22.6198 47.6147 22.5098 47.7629 22.5198C52.6617 22.8898 55.8222 25.5098 58.6271 31.5398C56.6715 32.7498 54.7357 33.3398 53.195 33.5398Z" fill="#9292A1"/>
<path d="M78.7457 39.3976L75.6182 36.2669C75.2627 35.911 74.6903 35.911 74.3407 36.2669C73.9852 36.6228 73.9852 37.1959 74.3407 37.5457L76.8295 40.0369L74.4131 42.4558C74.0575 42.8117 74.0575 43.3847 74.4131 43.7346C74.5878 43.9095 74.8228 44 75.0518 44C75.2808 44 75.5158 43.9095 75.6906 43.7346L78.7457 40.6763C79.1013 40.3265 79.1013 39.7534 78.7457 39.3976Z" fill="#9292A1"/>
<path d="M6.5935 35.3336C6.16686 34.8888 5.4799 34.8888 5.06049 35.3336L1.30753 39.2469C0.880889 39.6918 0.880889 40.4081 1.30753 40.8454L4.97372 44.6682C5.18342 44.8869 5.46544 45 5.74022 45C6.01501 45 6.29702 44.8869 6.50672 44.6682C6.93336 44.2234 6.93336 43.5071 6.50672 43.0697L3.60703 40.0462L6.5935 36.9321C7.02013 36.4873 7.02013 35.771 6.5935 35.3336Z" fill="#9292A1"/>
</svg>
