<svg width="80" height="80" viewBox="0 0 80 80" fill="none" xmlns="http://www.w3.org/2000/svg">
<path d="M47.0741 39.835C46.8342 39.835 46.5942 39.775 46.3742 39.665L39.995 36.3154L33.6158 39.665C33.1059 39.935 32.4959 39.885 32.036 39.555C31.5761 39.2151 31.3461 38.6551 31.4361 38.0852L32.6559 30.9861L27.4966 25.9567C27.0866 25.5568 26.9366 24.9669 27.1166 24.4169C27.2966 23.877 27.7665 23.477 28.3265 23.3971L35.4556 22.3572L38.6452 15.898C38.8951 15.3881 39.4151 15.0581 39.995 15.0581C40.5749 15.0581 41.0849 15.3781 41.3448 15.898L44.5344 22.3572L51.6635 23.3971C52.2235 23.477 52.6934 23.877 52.8734 24.4169C53.0534 24.9569 52.9034 25.5568 52.4934 25.9567L47.3341 30.9861L48.5539 38.0852C48.6539 38.6451 48.424 39.2151 47.954 39.555C47.704 39.745 47.3941 39.835 47.0741 39.835ZM40.005 33.1158C40.245 33.1158 40.4849 33.1758 40.7049 33.2858L45.0944 35.5955L44.2545 30.7061C44.1745 30.2162 44.3345 29.7263 44.6844 29.3763L48.234 25.9167L43.3246 25.2068C42.8347 25.1368 42.4147 24.8269 42.1947 24.3869L40.005 19.9375L37.8153 24.3869C37.5953 24.8269 37.1754 25.1368 36.6854 25.2068L31.776 25.9167L35.3256 29.3763C35.6755 29.7163 35.8455 30.2162 35.7555 30.7061L34.9156 35.5955L39.3051 33.2858C39.5251 33.1758 39.765 33.1158 40.005 33.1158Z" fill="#9292A1"/>
<path d="M58.5026 55.943H21.5073C20.6774 55.943 20.0074 55.2731 20.0074 54.4432C20.0074 53.6133 20.6774 52.9434 21.5073 52.9434H58.5026C59.3325 52.9434 60.0024 53.6133 60.0024 54.4432C60.0024 55.2731 59.3225 55.943 58.5026 55.943Z" fill="#9292A1"/>
<path d="M51.0035 64.942H30.0062C29.1763 64.942 28.5063 64.2721 28.5063 63.4422C28.5063 62.6123 29.1763 61.9424 30.0062 61.9424H51.0035C51.8334 61.9424 52.5033 62.6123 52.5033 63.4422C52.5033 64.2721 51.8234 64.942 51.0035 64.942Z" fill="#9292A1"/>
<path d="M73.5008 80H6.49919C2.91964 80 0 77.0804 0 73.5008V6.49919C0 2.91964 2.91964 0 6.49919 0H73.5008C77.0804 0 80 2.91964 80 6.49919V73.5008C80 77.0904 77.0904 80 73.5008 80ZM6.49919 2.99962C4.56943 2.99962 2.99962 4.56943 2.99962 6.49919V73.5008C2.99962 75.4306 4.56943 77.0004 6.49919 77.0004H73.5008C75.4306 77.0004 77.0004 75.4306 77.0004 73.5008V6.49919C77.0004 4.56943 75.4306 2.99962 73.5008 2.99962H6.49919Z" fill="#9292A1"/>
</svg>
